<?xml version="1.0" encoding="UTF-8" standalone="no"?>
<!DOCTYPE svg PUBLIC "-//W3C//DTD SVG 1.1//EN" "http://www.w3.org/raphics/SVG/1.1/DTD/svg11.dtd">
<svg width="100%" height="100%" viewBox="0 0 1920 1080" version="1.1" xmlns="http://www.w3.org/2000/svg" xmlns:xlink="http://www.w3.org/1999/xlink" xml:space="preserve" xmlns:serif="http://www.serif.com/" style="fill-rule:evenodd;clip-rule:evenodd;stroke-linejoin:round;stroke-miterlimit:1.41421;">
    <path d="M1276.21,0C1231.26,22.902 1196.2,62.513 1179.27,110.631C1159.67,91.233 1132.72,79.248 1102.99,79.248C1077.9,79.248 1054.79,87.787 1036.4,102.116C1007.87,83.417 973.753,72.54 937.119,72.54C904.064,72.54 873.06,81.396 846.354,96.863C813.055,57.932 763.581,33.241 708.386,33.241C608.216,33.241 526.89,114.566 526.89,214.736C526.89,255.716 540.501,293.542 563.445,323.936C522.898,365.572 497.907,422.432 497.907,485.082C497.907,612.6 601.436,716.129 728.954,716.129C738.64,716.129 748.187,715.531 757.561,714.371C762.336,751.088 775.745,785.11 795.681,814.33C784.664,837.741 778.504,863.882 778.504,891.451C778.504,991.621 859.83,1072.95 960,1072.95C1060.17,1072.95 1141.5,991.621 1141.5,891.451C1141.5,880.18 1140.47,869.147 1138.5,858.442C1150.03,848.373 1160.56,837.176 1169.9,825.026C1196.06,839.645 1226.2,847.98 1258.27,847.98C1358.43,847.98 1439.76,766.655 1439.76,666.484C1439.76,635.733 1432.1,606.757 1418.58,581.365C1503.56,577.794 1571.89,509.31 1575.21,424.256C1594.86,431.548 1616.1,435.532 1638.28,435.532C1738.44,435.532 1819.77,354.206 1819.77,254.036C1819.77,249.768 1819.62,245.534 1819.33,241.339C1841.03,249.545 1864.55,254.036 1889.11,254.036C1899.62,254.036 1909.93,253.214 1920,251.631L1920,839.206C1898.65,827.629 1874.73,820.209 1849.32,818.033C1849.57,814.854 1849.69,811.642 1849.69,808.4C1849.69,739.931 1794.1,684.343 1725.63,684.343C1657.16,684.343 1601.58,739.931 1601.58,808.4C1601.58,857.037 1629.63,899.174 1670.42,919.504C1658.73,943.482 1652.17,970.412 1652.17,998.861C1652.17,1028.02 1659.06,1055.58 1671.3,1080L532.371,1080C532.662,1077.69 532.812,1075.34 532.812,1072.95C532.812,1042.03 507.714,1016.94 476.8,1016.94C445.887,1016.94 420.789,1042.03 420.789,1072.95C420.789,1075.34 420.939,1077.69 421.23,1080L0,1080L0,0L1276.21,0ZM303.674,849.831C306.396,839.463 307.845,828.582 307.845,817.366C307.845,746.884 250.623,689.662 180.142,689.662C109.66,689.662 52.438,746.884 52.438,817.366C52.438,887.847 109.66,945.07 180.142,945.07C200.504,945.07 219.76,940.293 236.85,931.801C236.848,932.02 236.847,932.239 236.847,932.458C236.847,979.082 274.7,1016.94 321.325,1016.94C367.949,1016.94 405.802,979.082 405.802,932.458C405.802,885.833 367.949,847.98 321.325,847.98C315.272,847.98 309.368,848.618 303.674,849.831ZM176.605,213.129C251.653,213.129 312.582,274.058 312.582,349.106C312.582,424.153 251.653,485.082 176.605,485.082C101.558,485.082 40.629,424.153 40.629,349.106C40.629,274.058 101.558,213.129 176.605,213.129ZM392.323,72.54C438.947,72.54 476.8,110.393 476.8,157.018C476.8,203.642 438.947,241.495 392.323,241.495C345.698,241.495 307.845,203.642 307.845,157.018C307.845,110.393 345.698,72.54 392.323,72.54ZM1699.75,0C1694.42,17.896 1691.55,36.853 1691.55,56.473C1691.55,64.767 1692.06,72.942 1693.06,80.968C1675.77,75.494 1657.36,72.54 1638.28,72.54C1604.94,72.54 1573.7,81.545 1546.84,97.252C1528.48,55.192 1495.89,20.742 1455.16,0L1699.75,0Z"/>
</svg>
