<?xml version="1.0" encoding="UTF-8" standalone="no"?>
<!DOCTYPE svg PUBLIC "-//W3C//DTD SVG 1.1//EN" "http://www.w3.org/Graphics/SVG/1.1/DTD/svg11.dtd">
<svg width="100%" height="100%" viewBox="0 0 60 21" version="1.1" xmlns="http://www.w3.org/2000/svg" xmlns:xlink="http://www.w3.org/1999/xlink" xml:space="preserve" xmlns:serif="http://www.serif.com/" style="fill-rule:evenodd;clip-rule:evenodd;stroke-linejoin:round;stroke-miterlimit:2;">
    <g transform="matrix(1,0,0,1,0.885822,0.485522)">
        <g transform="matrix(1.76171,0,0,1.76171,-27.1312,-2.59931)">
            <path d="M15.181,5.978C15.181,5.103 15.312,4.368 15.574,3.775C15.769,3.337 16.036,2.945 16.374,2.597C16.712,2.249 17.082,1.991 17.484,1.824C18.019,1.597 18.637,1.484 19.336,1.484C20.601,1.484 21.614,1.876 22.374,2.661C23.134,3.447 23.514,4.538 23.514,5.937C23.514,7.324 23.137,8.408 22.383,9.192C21.629,9.975 20.621,10.366 19.359,10.366C18.082,10.366 17.066,9.977 16.312,9.198C15.558,8.418 15.181,7.345 15.181,5.978ZM16.969,5.919C16.969,6.892 17.193,7.629 17.642,8.131C18.092,8.633 18.662,8.884 19.353,8.884C20.045,8.884 20.612,8.635 21.055,8.137C21.499,7.639 21.721,6.892 21.721,5.896C21.721,4.911 21.505,4.177 21.073,3.693C20.641,3.208 20.068,2.966 19.353,2.966C18.639,2.966 18.062,3.211 17.625,3.701C17.187,4.192 16.969,4.931 16.969,5.919Z" style="fill:none;fill-rule:nonzero;stroke:rgb(32,32,32);stroke-width:0.57px;"/>
            <rect x="24.855" y="1.63" width="1.646" height="8.59" style="fill:none;fill-rule:nonzero;stroke:rgb(32,32,32);stroke-width:0.57px;"/>
            <path d="M33.896,10.22L32.367,10.22L32.367,9.306C32.113,9.661 31.813,9.926 31.468,10.1C31.122,10.274 30.773,10.361 30.422,10.361C29.707,10.361 29.095,10.073 28.585,9.496C28.075,8.92 27.82,8.116 27.82,7.085C27.82,6.031 28.068,5.229 28.564,4.68C29.06,4.131 29.687,3.857 30.445,3.857C31.14,3.857 31.742,4.146 32.25,4.724L32.25,1.63L33.896,1.63L33.896,10.22ZM29.502,6.974C29.502,7.638 29.594,8.118 29.777,8.415C30.043,8.845 30.414,9.06 30.89,9.06C31.269,9.06 31.592,8.899 31.857,8.576C32.123,8.254 32.256,7.773 32.256,7.132C32.256,6.417 32.127,5.903 31.869,5.588C31.611,5.274 31.281,5.116 30.879,5.116C30.488,5.116 30.161,5.272 29.897,5.582C29.634,5.893 29.502,6.357 29.502,6.974Z" style="fill:none;fill-rule:nonzero;stroke:rgb(32,32,32);stroke-width:0.57px;"/>
            <path d="M35.519,3.154L35.519,1.63L37.166,1.63L37.166,3.154L35.519,3.154ZM35.519,10.22L35.519,3.997L37.166,3.997L37.166,10.22L35.519,10.22Z" style="fill:none;fill-rule:nonzero;stroke:rgb(32,32,32);stroke-width:0.57px;"/>
            <path d="M38.133,3.997L39.047,3.997L39.047,3.529C39.047,3.005 39.102,2.615 39.214,2.357C39.325,2.099 39.53,1.889 39.829,1.727C40.128,1.565 40.506,1.484 40.963,1.484C41.431,1.484 41.89,1.554 42.34,1.695L42.117,2.843C41.855,2.781 41.603,2.749 41.361,2.749C41.123,2.749 40.952,2.805 40.848,2.916C40.745,3.028 40.693,3.241 40.693,3.558L40.693,3.997L41.924,3.997L41.924,5.292L40.693,5.292L40.693,10.22L39.047,10.22L39.047,5.292L38.133,5.292L38.133,3.997Z" style="fill:none;fill-rule:nonzero;stroke:rgb(32,32,32);stroke-width:0.57px;"/>
            <path d="M42.07,3.997L43.822,3.997L45.31,8.415L46.764,3.997L48.469,3.997L46.271,9.986L45.879,11.07C45.734,11.433 45.597,11.71 45.466,11.902C45.335,12.093 45.184,12.248 45.014,12.367C44.845,12.487 44.636,12.579 44.388,12.646C44.139,12.712 43.859,12.745 43.547,12.745C43.23,12.745 42.92,12.712 42.615,12.646L42.469,11.357C42.726,11.407 42.959,11.433 43.166,11.433C43.549,11.433 43.832,11.321 44.015,11.096C44.199,10.871 44.34,10.585 44.437,10.238L42.07,3.997Z" style="fill:none;fill-rule:nonzero;stroke:rgb(32,32,32);stroke-width:0.57px;"/>
        </g>
    </g>
</svg>
